HIERARCHY
ROOT Hips
{
    OFFSET 0.000000 0.000000 0.000000
    CHANNELS 6 Xposition Yposition Zposition Zrotation Xrotation Yrotation
    JOINT Spine
    {
        OFFSET -0.000000 14.517291 0.000000
        CHANNELS 3 Zrotation Xrotation Yrotation
        JOINT Spine1
        {
            OFFSET -0.000000 37.558300 0.000000
            CHANNELS 3 Zrotation Xrotation Yrotation
            JOINT Neck
            {
                OFFSET -0.000000 37.404057 3.400369
                CHANNELS 3 Zrotation Xrotation Yrotation
                JOINT Head
                {
                    OFFSET -0.000000 24.785618 -3.540803
                    CHANNELS 3 Zrotation Xrotation Yrotation
                    End Site
                    {
                        OFFSET -0.000000 35.408028 0.000000
                    }
                }
            }
            JOINT LeftShoulder
            {
                OFFSET 6.992933 33.973492 -0.192664
                CHANNELS 3 Zrotation Xrotation Yrotation
                JOINT LeftArm
                {
                    OFFSET 21.527611 0.000000 0.000000
                    CHANNELS 3 Zrotation Xrotation Yrotation
                    JOINT LeftForeArm
                    {
                        OFFSET 56.353916 0.000000 0.000000
                        CHANNELS 3 Zrotation Xrotation Yrotation
                        JOINT LeftHand
                        {
                            OFFSET 47.774071 0.000000 0.000000
                            CHANNELS 3 Zrotation Xrotation Yrotation
                            End Site
                            {
                                OFFSET 26.556021 0.000000 0.000000
                            }
                        }
                    }
                }
            }
            JOINT RightShoulder
            {
                OFFSET -7.065357 33.973492 -0.192664
                CHANNELS 3 Zrotation Xrotation Yrotation
                JOINT RightArm
                {
                    OFFSET -21.527611 0.000000 0.000000
                    CHANNELS 3 Zrotation Xrotation Yrotation
                    JOINT RightForeArm
                    {
                        OFFSET -56.353916 0.000000 0.000000
                        CHANNELS 3 Zrotation Xrotation Yrotation
                        JOINT RightHand
                        {
                            OFFSET -47.774071 0.000000 0.000000
                            CHANNELS 3 Zrotation Xrotation Yrotation
                            End Site
                            {
                                OFFSET -26.556021 0.000000 0.000000
                            }
                        }
                    }
                }
            }
        }
    }
    JOINT LeftUpLeg
    {
        OFFSET 17.704014 0.000000 0.000000
        CHANNELS 3 Zrotation Xrotation Yrotation
        JOINT LeftLeg
        {
            OFFSET -0.000000 -81.181816 0.000000
            CHANNELS 3 Zrotation Xrotation Yrotation
            JOINT LeftFoot
            {
                OFFSET -0.000000 -62.821102 0.000000
                CHANNELS 3 Zrotation Xrotation Yrotation
                JOINT LeftToeBase
                {
                    OFFSET -0.000000 -11.507608 26.556021
                    CHANNELS 3 Zrotation Xrotation Yrotation
                    End Site
                    {
                        OFFSET -0.000000 0.000000 7.081605
                    }
                }
            }
        }
    }
    JOINT RightUpLeg
    {
        OFFSET -17.704014 0.000000 0.000000
        CHANNELS 3 Zrotation Xrotation Yrotation
        JOINT RightLeg
        {
            OFFSET -0.000000 -81.181816 0.000000
            CHANNELS 3 Zrotation Xrotation Yrotation
            JOINT RightFoot
            {
                OFFSET -0.000000 -62.821102 0.000000
                CHANNELS 3 Zrotation Xrotation Yrotation
                JOINT RightToeBase
                {
                    OFFSET -0.000000 -11.507608 26.556021
                    CHANNELS 3 Zrotation Xrotation Yrotation
                    End Site
                    {
                        OFFSET -0.000000 0.000000 7.081605
                    }
                }
            }
        }
    }
}
MOTION
Frames:    8
Frame Time:    0.008333
2.053312    143.964874    -32.831898    0.098199    -0.633607    -41.824444    4.147315    -0.835827    3.909753    -2.124840    0.647490    1.304790    16.743813    5.025026    16.247911    -9.389746    0.230998    13.875864    -0.698141    8.869435    -9.590322    -35.961590    6.721272    -31.864590    31.470308    -40.015434    -39.533394    -20.181707    -25.097105    -33.527451    -6.217318    6.104483    -2.213887    35.364212    8.096930    74.079956    8.874984    -5.824846    92.979980    8.740260    -13.510304    20.533792    34.196491    -23.234293    15.106865    -18.257318    22.616465    5.336440    -13.353696    6.262440    29.807425    0.000000    0.000000    0.000000    -27.022623    7.642630    -12.689938    3.813523    23.898365    -0.795901    22.748096    -21.056957    -3.927757    0.000000    0.000000    0.000000    
2.031598    143.972961    -32.827633    0.108510    -0.636844    -41.835155    4.121912    -0.835513    3.919512    -2.117044    0.640253    1.307881    16.742041    5.006932    16.236210    -9.369787    0.250777    13.865416    -0.697772    8.862420    -9.599007    -35.967346    6.705179    -31.846422    31.445702    -40.015934    -39.579418    -20.169952    -25.096867    -33.524620    -6.208484    6.117734    -2.231551    35.373344    8.096991    74.086349    8.886133    -5.769791    92.988800    8.739779    -13.469258    20.537804    34.189167    -23.217709    15.094421    -18.254784    22.597353    5.328251    -13.362411    6.268984    29.822109    0.000000    0.000000    0.000000    -27.029961    7.625781    -12.631208    3.836492    23.917852    -0.823190    22.749041    -21.059025    -3.966912    0.000000    0.000000    0.000000    
2.010946    143.982025    -32.825779    0.120892    -0.635894    -41.840931    4.103691    -0.845356    3.921595    -2.115851    0.641234    1.308560    16.749228    5.001684    16.233070    -9.375407    0.255627    13.860180    -0.698038    8.858383    -9.593676    -35.963333    6.701540    -31.843679    31.431900    -40.029747    -39.609863    -20.155081    -25.114130    -33.521027    -6.202996    6.129076    -2.235482    35.373657    8.096171    74.093765    8.888320    -5.739845    93.003792    8.735241    -13.446544    20.523670    34.179756    -23.214073    15.082967    -18.243973    22.582483    5.318135    -13.378353    6.276873    29.853868    0.000000    0.000000    0.000000    -27.036575    7.615189    -12.567547    3.869352    23.922556    -0.869724    22.756414    -21.063473    -4.000549    0.000000    0.000000    0.000000    
1.991570    143.987961    -32.827873    0.136681    -0.629399    -41.847248    4.086615    -0.859314    3.924417    -2.114810    0.634501    1.309207    16.737349    5.002732    16.222366    -9.351259    0.254827    13.853643    -0.700481    8.863007    -9.596380    -35.941200    6.721224    -31.837297    31.483858    -40.049427    -39.583557    -20.179583    -25.118759    -33.526272    -6.202152    6.140115    -2.225568    35.381802    8.089248    74.088249    8.905725    -5.713495    93.018364    8.733209    -13.440475    20.540741    34.169975    -23.213030    15.072888    -18.233154    22.559591    5.338944    -13.392119    6.283964    29.854174    0.000000    0.000000    0.000000    -27.038815    7.599689    -12.527559    3.888829    23.923000    -0.909525    22.750322    -21.060951    -4.006162    0.000000    0.000000    0.000000    
1.967893    143.992035    -32.824089    0.140872    -0.628367    -41.850723    4.077698    -0.866737    3.916719    -2.116102    0.635846    1.306614    16.727858    4.999854    16.225502    -9.336544    0.260429    13.859969    -0.702884    8.860201    -9.591189    -35.944721    6.680187    -31.824976    31.448997    -40.029209    -39.621052    -20.188339    -25.091948    -33.537304    -6.205230    6.148400    -2.215978    35.409195    8.072474    74.096596    8.930334    -5.657026    93.021408    8.716218    -13.414877    20.538477    34.166592    -23.201601    15.046688    -18.228239    22.541035    5.335266    -13.394614    6.284384    29.875420    0.000000    0.000000    0.000000    -27.035372    7.606622    -12.514105    3.890651    23.913403    -0.928266    22.745689    -21.053812    -3.984790    0.000000    0.000000    0.000000    
1.946729    143.995255    -32.823639    0.146453    -0.623586    -41.854877    4.065623    -0.865739    3.908997    -2.112402    0.623783    1.303848    16.706903    4.986725    16.222738    -9.306337    0.270151    13.862236    -0.707206    8.860108    -9.569764    -35.936970    6.677288    -31.825399    31.426773    -40.038448    -39.654755    -20.164291    -25.108795    -33.531429    -6.205836    6.149370    -2.211295    35.401695    8.087449    74.108406    8.925657    -5.670779    93.039513    8.714331    -13.426478    20.540773    34.163456    -23.196522    15.032863    -18.214176    22.530054    5.328364    -13.406186    6.282314    29.884220    0.000000    0.000000    0.000000    -27.025780    7.608420    -12.508185    3.883178    23.901854    -0.955602    22.759893    -21.045534    -3.947628    0.000000    0.000000    0.000000    
1.922648    143.997742    -32.822895    0.145333    -0.616694    -41.858665    4.055298    -0.878488    3.904613    -2.099873    0.632673    1.302381    16.692461    4.985325    16.214674    -9.298729    0.264408    13.855684    -0.714082    8.854050    -9.569357    -35.936783    6.638636    -31.815912    31.386465    -40.017269    -39.691643    -20.180420    -25.082170    -33.534977    -6.208784    6.147463    -2.201318    35.405338    8.078548    74.108955    8.929666    -5.659880    93.049965    8.727304    -13.418948    20.546276    34.171776    -23.185610    15.007166    -18.220612    22.506794    5.335601    -13.401961    6.278314    29.902077    0.000000    0.000000    0.000000    -27.010612    7.613370    -12.528790    3.876323    23.891064    -0.973051    22.748426    -21.035975    -3.924014    0.000000    0.000000    0.000000    
1.900693    143.998825    -32.820572    0.147785    -0.607421    -41.853046    4.057974    -0.888124    3.889834    -2.107593    0.631038    1.297306    16.688131    4.970686    16.216480    -9.295726    0.288493    13.858163    -0.714677    8.856211    -9.550892    -35.926735    6.615064    -31.819866    31.342989    -40.005344    -39.725071    -20.159662    -25.079996    -33.533428    -6.213769    6.153613    -2.191041    35.426540    8.061396    74.117233    8.958248    -5.633159    93.064560    8.712230    -13.427017    20.552628    34.172173    -23.187899    14.987967    -18.205933    22.496126    5.310117    -13.421803    6.263299    29.926701    0.000000    0.000000    0.000000    -26.994295    7.621368    -12.542491    3.862128    23.875978    -0.964137    22.769375    -21.039997    -3.915649    0.000000    0.000000    0.000000    
